<svg width="25" height="27" viewBox="0 0 25 27" fill="none" xmlns="http://www.w3.org/2000/svg">
<g id="align-center">
<g id="Vector">
<path fill-rule="evenodd" clip-rule="evenodd" d="M5.20801 11.25C5.20801 10.6287 5.67438 10.125 6.24967 10.125H18.7497C19.325 10.125 19.7913 10.6287 19.7913 11.25C19.7913 11.8713 19.325 12.375 18.7497 12.375H6.24967C5.67438 12.375 5.20801 11.8713 5.20801 11.25Z" fill="#6A6A6A"/>
<path fill-rule="evenodd" clip-rule="evenodd" d="M2.08301 6.75C2.08301 6.12868 2.54938 5.625 3.12467 5.625H21.8747C22.45 5.625 22.9163 6.12868 22.9163 6.75C22.9163 7.37132 22.45 7.875 21.8747 7.875H3.12467C2.54938 7.875 2.08301 7.37132 2.08301 6.75Z" fill="#6A6A6A"/>
<path fill-rule="evenodd" clip-rule="evenodd" d="M2.08301 15.75C2.08301 15.1287 2.54938 14.625 3.12467 14.625H21.8747C22.45 14.625 22.9163 15.1287 22.9163 15.75C22.9163 16.3713 22.45 16.875 21.8747 16.875H3.12467C2.54938 16.875 2.08301 16.3713 2.08301 15.75Z" fill="#6A6A6A"/>
<path fill-rule="evenodd" clip-rule="evenodd" d="M5.20801 20.25C5.20801 19.6287 5.67438 19.125 6.24967 19.125H18.7497C19.325 19.125 19.7913 19.6287 19.7913 20.25C19.7913 20.8713 19.325 21.375 18.7497 21.375H6.24967C5.67438 21.375 5.20801 20.8713 5.20801 20.25Z" fill="#6A6A6A"/>
</g>
</g>
</svg>
