<svg width="27" height="27" viewBox="0 0 27 27" fill="none" xmlns="http://www.w3.org/2000/svg">
<g id="link-2">
<g id="Vector">
<path fill-rule="evenodd" clip-rule="evenodd" d="M6.75 9C5.55653 9 4.41193 9.47411 3.56802 10.318C2.72411 11.1619 2.25 12.3065 2.25 13.5C2.25 14.6935 2.72411 15.8381 3.56802 16.682C3.98588 17.0998 4.48196 17.4313 5.02792 17.6575C5.57389 17.8836 6.15905 18 6.75 18H10.125C10.7463 18 11.25 18.5037 11.25 19.125C11.25 19.7463 10.7463 20.25 10.125 20.25H6.75C5.86358 20.25 4.98584 20.0754 4.16689 19.7362C3.34794 19.397 2.60382 18.8998 1.97703 18.273C0.711159 17.0071 0 15.2902 0 13.5C0 11.7098 0.711159 9.9929 1.97703 8.72703C3.2429 7.46116 4.95979 6.75 6.75 6.75H10.125C10.7463 6.75 11.25 7.25368 11.25 7.875C11.25 8.49632 10.7463 9 10.125 9H6.75ZM15.75 7.875C15.75 7.25368 16.2537 6.75 16.875 6.75H20.25C21.1364 6.75 22.0142 6.92459 22.8331 7.26381C23.6521 7.60303 24.3962 8.10023 25.023 8.72703C25.6498 9.35382 26.147 10.0979 26.4862 10.9169C26.8254 11.7358 27 12.6136 27 13.5C27 14.3864 26.8254 15.2642 26.4862 16.0831C26.147 16.9021 25.6498 17.6462 25.023 18.273C24.3962 18.8998 23.6521 19.397 22.8331 19.7362C22.0142 20.0754 21.1364 20.25 20.25 20.25H16.875C16.2537 20.25 15.75 19.7463 15.75 19.125C15.75 18.5037 16.2537 18 16.875 18H20.25C20.8409 18 21.4261 17.8836 21.9721 17.6575C22.518 17.4313 23.0141 17.0998 23.432 16.682C23.8498 16.2641 24.1813 15.768 24.4075 15.2221C24.6336 14.6761 24.75 14.0909 24.75 13.5C24.75 12.9091 24.6336 12.3239 24.4075 11.7779C24.1813 11.232 23.8498 10.7359 23.432 10.318C23.0141 9.90016 22.518 9.56869 21.9721 9.34254C21.4261 9.1164 20.8409 9 20.25 9H16.875C16.2537 9 15.75 8.49632 15.75 7.875Z" fill="#6A6A6A"/>
<path fill-rule="evenodd" clip-rule="evenodd" d="M7.875 13.5C7.875 12.8787 8.37868 12.375 9 12.375H18C18.6213 12.375 19.125 12.8787 19.125 13.5C19.125 14.1213 18.6213 14.625 18 14.625H9C8.37868 14.625 7.875 14.1213 7.875 13.5Z" fill="#6A6A6A"/>
</g>
</g>
</svg>
