<svg width="34" height="34" viewBox="0 0 34 34" fill="none" xmlns="http://www.w3.org/2000/svg">
<g id="trash">
<path id="Vector (Stroke)" fill-rule="evenodd" clip-rule="evenodd" d="M2.83301 8.49998C2.83301 7.71758 3.46727 7.08331 4.24967 7.08331H29.7497C30.5321 7.08331 31.1663 7.71758 31.1663 8.49998C31.1663 9.28238 30.5321 9.91665 29.7497 9.91665H4.24967C3.46727 9.91665 2.83301 9.28238 2.83301 8.49998Z" fill="#A3A3A3"/>
<path id="Vector (Stroke)_2" fill-rule="evenodd" clip-rule="evenodd" d="M14.167 4.25002C13.7913 4.25002 13.4309 4.39928 13.1653 4.66495C12.8996 4.93063 12.7503 5.29096 12.7503 5.66669V7.08335H21.2503V5.66669C21.2503 5.29096 21.1011 4.93063 20.8354 4.66495C20.5697 4.39928 20.2094 4.25002 19.8337 4.25002H14.167ZM24.0837 7.08335V5.66669C24.0837 4.53952 23.6359 3.45851 22.8389 2.66148C22.0418 1.86445 20.9608 1.41669 19.8337 1.41669H14.167C13.0398 1.41669 11.9588 1.86445 11.1618 2.66148C10.3648 3.45851 9.91699 4.53952 9.91699 5.66669V7.08335H7.08366C6.30126 7.08335 5.66699 7.71762 5.66699 8.50002V28.3334C5.66699 29.4605 6.11476 30.5415 6.91179 31.3386C7.70882 32.1356 8.78982 32.5834 9.91699 32.5834H24.0837C25.2108 32.5834 26.2918 32.1356 27.0889 31.3386C27.8859 30.5415 28.3337 29.4605 28.3337 28.3334V8.50002C28.3337 7.71762 27.6994 7.08335 26.917 7.08335H24.0837ZM8.50033 9.91669V28.3334C8.50033 28.7091 8.64958 29.0694 8.91526 29.3351C9.18093 29.6008 9.54127 29.75 9.91699 29.75H24.0837C24.4594 29.75 24.8197 29.6008 25.0854 29.3351C25.3511 29.0694 25.5003 28.7091 25.5003 28.3334V9.91669H8.50033Z" fill="#A3A3A3"/>
</g>
</svg>
